<mxfile host="app.diagrams.net" agent="Mozilla/5.0 (Windows NT 10.0; Win64; x64) AppleWebKit/537.36 (KHTML, like Gecko) Chrome/135.0.0.0 Safari/537.36" version="26.2.14">
  <diagram name="Page-1" id="GO2_FRx6fWmmjPUV9Lsz">
    <mxGraphModel dx="1042" dy="718" grid="1" gridSize="10" guides="1" tooltips="1" connect="1" arrows="1" fold="1" page="1" pageScale="1" pageWidth="1100" pageHeight="850" math="0" shadow="0">
      <root>
        <mxCell id="0" />
        <mxCell id="1" parent="0" />
        <mxCell id="jUA_TJZJbvLjzXfyUXkm-32" value="Student App(Angular)&lt;div&gt;service.ts&lt;/div&gt;" style="rounded=1;whiteSpace=wrap;html=1;" parent="1" vertex="1">
          <mxGeometry x="420" y="80" width="120" height="64" as="geometry" />
        </mxCell>
        <mxCell id="jUA_TJZJbvLjzXfyUXkm-33" value="Student App (ColdFusion)" style="rounded=1;whiteSpace=wrap;html=1;" parent="1" vertex="1">
          <mxGeometry x="630" y="80" width="120" height="64" as="geometry" />
        </mxCell>
        <mxCell id="jUA_TJZJbvLjzXfyUXkm-34" value="Admin App (Angular)&lt;div&gt;service.ts&lt;/div&gt;" style="rounded=1;whiteSpace=wrap;html=1;" parent="1" vertex="1">
          <mxGeometry x="420" y="420" width="120" height="64" as="geometry" />
        </mxCell>
        <mxCell id="jUA_TJZJbvLjzXfyUXkm-35" value="Admin App (ColdFusion)" style="rounded=1;whiteSpace=wrap;html=1;" parent="1" vertex="1">
          <mxGeometry x="630" y="420" width="120" height="64" as="geometry" />
        </mxCell>
        <mxCell id="jUA_TJZJbvLjzXfyUXkm-36" value="" style="edgeStyle=orthogonalEdgeStyle;rounded=0;orthogonalLoop=1;jettySize=auto;html=1;" parent="1" source="jUA_TJZJbvLjzXfyUXkm-37" target="jUA_TJZJbvLjzXfyUXkm-38" edge="1">
          <mxGeometry relative="1" as="geometry" />
        </mxCell>
        <mxCell id="jUA_TJZJbvLjzXfyUXkm-37" value="api/enrollments/pending&lt;br&gt;(ColdFusion(Admin))" style="rounded=1;whiteSpace=wrap;html=1;" parent="1" vertex="1">
          <mxGeometry x="615" y="220" width="150" height="64" as="geometry" />
        </mxCell>
        <mxCell id="jUA_TJZJbvLjzXfyUXkm-38" value="enrollments table&lt;div&gt;(SQL)query&lt;/div&gt;" style="whiteSpace=wrap;html=1;rounded=1;" parent="1" vertex="1">
          <mxGeometry x="860" y="290" width="120" height="64" as="geometry" />
        </mxCell>
        <mxCell id="jUA_TJZJbvLjzXfyUXkm-40" value="" style="endArrow=classic;html=1;rounded=0;exitX=0.25;exitY=1;exitDx=0;exitDy=0;entryX=0.617;entryY=0;entryDx=0;entryDy=0;entryPerimeter=0;" parent="1" source="jUA_TJZJbvLjzXfyUXkm-38" target="jUA_TJZJbvLjzXfyUXkm-35" edge="1">
          <mxGeometry width="50" height="50" relative="1" as="geometry">
            <mxPoint x="140" y="360" as="sourcePoint" />
            <mxPoint x="160" y="420" as="targetPoint" />
            <Array as="points">
              <mxPoint x="890" y="380" />
              <mxPoint x="704" y="380" />
            </Array>
          </mxGeometry>
        </mxCell>
        <mxCell id="jUA_TJZJbvLjzXfyUXkm-41" value="" style="endArrow=classic;html=1;rounded=0;" parent="1" edge="1">
          <mxGeometry width="50" height="50" relative="1" as="geometry">
            <mxPoint x="670" y="420" as="sourcePoint" />
            <mxPoint x="670" y="284" as="targetPoint" />
          </mxGeometry>
        </mxCell>
        <mxCell id="jUA_TJZJbvLjzXfyUXkm-44" value="SQL&lt;div&gt;Database&lt;br&gt;&lt;div&gt;&lt;br&gt;&lt;/div&gt;&lt;/div&gt;" style="shape=cylinder3;whiteSpace=wrap;html=1;boundedLbl=1;backgroundOutline=1;size=15;" parent="1" vertex="1">
          <mxGeometry x="1000" y="200" width="60" height="114" as="geometry" />
        </mxCell>
        <mxCell id="jUA_TJZJbvLjzXfyUXkm-45" value="" style="endArrow=classic;startArrow=classic;html=1;rounded=0;entryX=0;entryY=0.5;entryDx=0;entryDy=0;" parent="1" target="jUA_TJZJbvLjzXfyUXkm-35" edge="1">
          <mxGeometry width="50" height="50" relative="1" as="geometry">
            <mxPoint x="540" y="452" as="sourcePoint" />
            <mxPoint x="337" y="449.49" as="targetPoint" />
          </mxGeometry>
        </mxCell>
        <mxCell id="jUA_TJZJbvLjzXfyUXkm-46" value="" style="endArrow=classic;startArrow=classic;html=1;rounded=0;entryX=0;entryY=0.508;entryDx=0;entryDy=0;entryPerimeter=0;" parent="1" target="jUA_TJZJbvLjzXfyUXkm-33" edge="1">
          <mxGeometry width="50" height="50" relative="1" as="geometry">
            <mxPoint x="540" y="113" as="sourcePoint" />
            <mxPoint x="335" y="110.5" as="targetPoint" />
          </mxGeometry>
        </mxCell>
        <mxCell id="jUA_TJZJbvLjzXfyUXkm-47" value="SQL(query)&lt;br&gt;Tables &amp;amp; Columns&lt;div&gt;(BackEnd)&lt;/div&gt;" style="rounded=1;whiteSpace=wrap;html=1;" parent="1" vertex="1">
          <mxGeometry x="860" y="80" width="120" height="64" as="geometry" />
        </mxCell>
        <mxCell id="jUA_TJZJbvLjzXfyUXkm-48" value="SQL(query)&lt;br&gt;Tables &amp;amp; Columns&lt;div&gt;(BackEnd)&lt;/div&gt;" style="rounded=1;whiteSpace=wrap;html=1;" parent="1" vertex="1">
          <mxGeometry x="860" y="420" width="120" height="64" as="geometry" />
        </mxCell>
        <mxCell id="jUA_TJZJbvLjzXfyUXkm-49" value="" style="endArrow=classic;startArrow=classic;html=1;rounded=0;entryX=0;entryY=0.5;entryDx=0;entryDy=0;exitX=1;exitY=0.5;exitDx=0;exitDy=0;exitPerimeter=0;" parent="1" source="jUA_TJZJbvLjzXfyUXkm-33" target="jUA_TJZJbvLjzXfyUXkm-47" edge="1">
          <mxGeometry width="50" height="50" relative="1" as="geometry">
            <mxPoint x="470" y="109.5" as="sourcePoint" />
            <mxPoint x="540" y="109.5" as="targetPoint" />
          </mxGeometry>
        </mxCell>
        <mxCell id="jUA_TJZJbvLjzXfyUXkm-50" value="" style="endArrow=classic;startArrow=classic;html=1;rounded=0;entryX=0;entryY=0.5;entryDx=0;entryDy=0;exitX=1;exitY=0.5;exitDx=0;exitDy=0;exitPerimeter=0;" parent="1" edge="1">
          <mxGeometry width="50" height="50" relative="1" as="geometry">
            <mxPoint x="750" y="451.5" as="sourcePoint" />
            <mxPoint x="860" y="451.5" as="targetPoint" />
          </mxGeometry>
        </mxCell>
        <mxCell id="jUA_TJZJbvLjzXfyUXkm-51" value="" style="endArrow=classic;startArrow=classic;html=1;rounded=0;entryX=0.5;entryY=1;entryDx=0;entryDy=0;entryPerimeter=0;" parent="1" target="jUA_TJZJbvLjzXfyUXkm-44" edge="1">
          <mxGeometry width="50" height="50" relative="1" as="geometry">
            <mxPoint x="980" y="450" as="sourcePoint" />
            <mxPoint x="780" y="410" as="targetPoint" />
            <Array as="points">
              <mxPoint x="1030" y="450" />
            </Array>
          </mxGeometry>
        </mxCell>
        <mxCell id="jUA_TJZJbvLjzXfyUXkm-52" value="" style="endArrow=classic;startArrow=classic;html=1;rounded=0;entryX=0.5;entryY=0;entryDx=0;entryDy=0;entryPerimeter=0;" parent="1" target="jUA_TJZJbvLjzXfyUXkm-44" edge="1">
          <mxGeometry width="50" height="50" relative="1" as="geometry">
            <mxPoint x="980" y="110" as="sourcePoint" />
            <mxPoint x="800" y="60" as="targetPoint" />
            <Array as="points">
              <mxPoint x="1030" y="110" />
            </Array>
          </mxGeometry>
        </mxCell>
        <mxCell id="IrqCp5ZNCIfRvdIMDoYP-1" value="Angular(HTML)&lt;br&gt;FrontEnd" style="rounded=1;whiteSpace=wrap;html=1;" vertex="1" parent="1">
          <mxGeometry y="82" width="120" height="60" as="geometry" />
        </mxCell>
        <mxCell id="IrqCp5ZNCIfRvdIMDoYP-2" value="Angular(HTML)&lt;br&gt;FrontEnd" style="rounded=1;whiteSpace=wrap;html=1;" vertex="1" parent="1">
          <mxGeometry y="422" width="120" height="60" as="geometry" />
        </mxCell>
        <mxCell id="IrqCp5ZNCIfRvdIMDoYP-3" value="Angular(Components)&lt;div&gt;FrontEnd&lt;/div&gt;" style="rounded=1;whiteSpace=wrap;html=1;" vertex="1" parent="1">
          <mxGeometry x="200" y="422" width="120" height="60" as="geometry" />
        </mxCell>
        <mxCell id="IrqCp5ZNCIfRvdIMDoYP-4" value="Angular(Components)&lt;div&gt;FrontEnd&lt;/div&gt;" style="rounded=1;whiteSpace=wrap;html=1;" vertex="1" parent="1">
          <mxGeometry x="200" y="82" width="120" height="60" as="geometry" />
        </mxCell>
        <mxCell id="IrqCp5ZNCIfRvdIMDoYP-9" value="" style="endArrow=classic;startArrow=classic;html=1;rounded=0;exitX=1;exitY=0.5;exitDx=0;exitDy=0;" edge="1" parent="1" source="IrqCp5ZNCIfRvdIMDoYP-3">
          <mxGeometry width="50" height="50" relative="1" as="geometry">
            <mxPoint x="330" y="451.5" as="sourcePoint" />
            <mxPoint x="420" y="451.5" as="targetPoint" />
          </mxGeometry>
        </mxCell>
        <mxCell id="IrqCp5ZNCIfRvdIMDoYP-10" value="" style="endArrow=classic;startArrow=classic;html=1;rounded=0;exitX=1;exitY=0.5;exitDx=0;exitDy=0;" edge="1" parent="1" source="IrqCp5ZNCIfRvdIMDoYP-1">
          <mxGeometry width="50" height="50" relative="1" as="geometry">
            <mxPoint x="100" y="112" as="sourcePoint" />
            <mxPoint x="200" y="111.5" as="targetPoint" />
          </mxGeometry>
        </mxCell>
        <mxCell id="IrqCp5ZNCIfRvdIMDoYP-11" value="" style="endArrow=classic;startArrow=classic;html=1;rounded=0;exitX=1;exitY=0.5;exitDx=0;exitDy=0;" edge="1" parent="1">
          <mxGeometry width="50" height="50" relative="1" as="geometry">
            <mxPoint x="320" y="112" as="sourcePoint" />
            <mxPoint x="420" y="111.5" as="targetPoint" />
          </mxGeometry>
        </mxCell>
        <mxCell id="IrqCp5ZNCIfRvdIMDoYP-12" value="" style="endArrow=classic;startArrow=classic;html=1;rounded=0;exitX=1;exitY=0.5;exitDx=0;exitDy=0;" edge="1" parent="1" source="IrqCp5ZNCIfRvdIMDoYP-2">
          <mxGeometry width="50" height="50" relative="1" as="geometry">
            <mxPoint x="100" y="452" as="sourcePoint" />
            <mxPoint x="200" y="451.5" as="targetPoint" />
          </mxGeometry>
        </mxCell>
        <mxCell id="IrqCp5ZNCIfRvdIMDoYP-13" value="" style="endArrow=classic;startArrow=classic;html=1;rounded=0;" edge="1" parent="1">
          <mxGeometry width="50" height="50" relative="1" as="geometry">
            <mxPoint x="930" y="420" as="sourcePoint" />
            <mxPoint x="930" y="354" as="targetPoint" />
          </mxGeometry>
        </mxCell>
        <mxCell id="IrqCp5ZNCIfRvdIMDoYP-14" value="" style="endArrow=classic;startArrow=classic;html=1;rounded=0;entryX=0.5;entryY=1;entryDx=0;entryDy=0;" edge="1" parent="1" target="jUA_TJZJbvLjzXfyUXkm-33">
          <mxGeometry width="50" height="50" relative="1" as="geometry">
            <mxPoint x="689.5" y="220" as="sourcePoint" />
            <mxPoint x="689.5" y="150" as="targetPoint" />
          </mxGeometry>
        </mxCell>
      </root>
    </mxGraphModel>
  </diagram>
</mxfile>
